<?xml version="1.0" encoding="UTF-8"?><svg id="Layer_1" xmlns="http://www.w3.org/2000/svg" width="78.72" height="78.72" viewBox="0 0 78.72 78.72"><path d="M48.41,66.15c-1.49-.07-1.77-.89-1.56-2.24.79-5.13,2.11-10.17,2.59-15.35.04-4.35-.12-4.44-3.9-2.42-2.45,1.31-4.57,3.19-7.22,4.18-2.62-.33-2.56-1.96-1.9-3.89.21.77-.29,1.72.57,2.36,2.25-2.68,2.23-4.37-.03-5.11,1.61-3.52,3.22-7.04,4.83-10.57,1-.5.9-1.43.93-2.32.12-.06.25-.11.38-.13,1.72,1.01,3.2-.63,4.84-.43-.51,1.11-2.02,1.81-1.36,3.39-.35.47-.7.94-1.05,1.41-2.24-.73-3.79.19-4.48,2.26-.54,1.62-1.45,3.6,1.2,4.48-.43,1.27-.92,2.53-1.28,3.83-.14.5-.16,1.19.3,1.57.53.44,1.06,0,1.53-.26,2.01-1.12,3.94-2.41,6.02-3.39,3.7-1.75,5.37-.58,5.29,3.55-.01.71-.1,1.43-.19,2.13-.39,2.91-.79,5.82-1.19,8.73-.58,1.79-.77,3.61-.38,5.47.19.17.37.33.56.5-1.39.96-2.78,1.92-4.49,2.24Z" style="fill:#939393; stroke-width:0px;"/><path d="M22.46,37.32c-2.13-.76-1.46-2.4-1.04-3.79.86-2.84,2.38-5.38,3.93-7.89,1.42-2.31,2.85-4.61,4.37-6.84.96-1.41.23-1.56-.94-1.56,1.22-.86,3.46,0,3.82-2.28.68-2.27.52-2.4-2.91-2.55,2.82-.76,5.43-.73,7.31,1.99.38,2.04-.81,3.49-1.87,4.99-2.37,3.39-5.08,6.56-6.9,10.33-.61.81-1.44,1.76-.97,2.69.49.97,1.3-.34,2.02-.22v-.02c-1.89,2.23-4.12,4.01-6.82,5.16Z" style="fill:#969696; stroke-width:0px;"/><path d="M9.67,55.74c-.41-3.35.73-6.48,1.44-9.66,1.09-4.91,2.37-9.78,3.64-14.64.29-1.12.46-2.38,1.55-3.14,3.08,1.57,3.3,1.97,2.44,5.57-1.38,5.81-3.05,11.55-4.18,17.42-.76,3.96-.81,3.96-4.89,4.45Z" style="fill:#959595; stroke-width:0px;"/><path d="M48.41,66.15c1.71-.32,3.1-1.28,4.49-2.24,4.36-2.14,8.32-5.07,12.95-6.7,1.41-.04,2.8-.17,4.12-.72.66.82-.03,1.74.19,2.59-5.93,3.18-11.85,6.38-17.79,9.54-.76.4-1.61.68-2.46.87-1.22.28-2.27-.25-2.84-1.28-.73-1.31.76-1.44,1.34-2.05Z" style="fill:#323232; stroke-width:0px;"/><path d="M32.6,14.95c-.36,2.29-2.61,1.42-3.82,2.28-5.85,1.03-11.42,2.76-16.39,6.17-2.43,1.67-4.1.96-4.58-1.77,2.08-1.25,4.16-2.5,6.23-3.76,4.64-1.7,9.34-3.17,14.28-3.68,1.49-.15,3.03-.47,4.28.75Z" style="fill:#373737; stroke-width:0px;"/><path d="M31.69,28.81c.9-1.19,2.09-2.07,3.32-2.89,1.2-.24,2.46-1.02,3.46.44.93,1.36.05,2.41-.55,3.52-.8,1.47-1.67,2.9-1.98,4.58-.37.56-.58,1.23-.33,1.81,1.1,2.55-.65,3.52-2.4,4.52-3.01.6-2.37-1.98-3-3.45,1.57-2.26,1.96-4.92,3.07-7.75-1.81.76-2.46,2.34-3.99,2.56,0,0,.01.02.01.02.57-1.29,2.33-1.72,2.4-3.37Z" style="fill:#949494; stroke-width:0px;"/><path d="M38.32,50.32c2.64-.98,4.76-2.87,7.22-4.18,3.78-2.02,3.94-1.93,3.9,2.42-2.15.67-3.71,2.32-5.61,3.41-1.52.88-3.01,1.78-4.85,1.81-1.42.02-2.42-.82-2.63-1.99-.21-1.17,1.14-1.18,1.98-1.47Z" style="fill:#383838; stroke-width:0px;"/><path d="M29.28,32.16c1.53-.22,2.18-1.8,3.99-2.56-1.11,2.83-1.5,5.5-3.07,7.75-1.8,1.27-3.62,2.51-5.7,3.3-1.3.49-2.58.37-3.31-.92-.72-1.28.68-1.68,1.28-2.4,2.7-1.15,4.93-2.93,6.81-5.16Z" style="fill:#373737; stroke-width:0px;"/><path d="M45.53,35.04c.35-.47.7-.94,1.05-1.41,1.16-.9,1.77-2.41,3.27-2.93.26.75-.36,1.31-.41,2-2.64,1.56-3.84,4.21-5.05,6.8-.97,2.07-1.67,4.27-2.16,6.78.96-.6,1.92-1.22,2.89-1.81,1.02-.62,2.03-1.28,3.1-1.81,1.66-.84,3.4-1.67,5.18-.41,1.71,1.21,1.89,3.1,1.65,4.97-.53,4.11-1.19,8.21-1.79,12.31-.18-.52-.36-1.05-.54-1.57.4-2.91.8-5.82,1.19-8.73.09-.71.18-1.42.19-2.13.08-4.14-1.58-5.31-5.29-3.55-2.07.98-4,2.27-6.02,3.39-.46.26-1,.71-1.53.26-.46-.39-.44-1.07-.3-1.57.35-1.3.84-2.56,1.28-3.83,1.09-2.25,2.19-4.49,3.28-6.74Z" style="fill:#191919; stroke-width:0px;"/><path d="M33.2,40.8c1.75-1,3.5-1.97,2.4-4.52-.25-.58-.03-1.26.33-1.81.16.48.44.74.98.58.14.12.29.23.43.35,2.07.4,2.63-2.18,4.44-2.27-1.61,3.52-3.22,7.04-4.83,10.57-.33.28-.67.57-1,.85-3.15.64-3.41.54-5.17-2.1.92-.37,1.91-.67,2.41-1.63Z" style="fill:#3d3d3d; stroke-width:0px;"/><path d="M58.79,49.19c1.09-2.3,3.19-3.45,5.33-4.45,1.19-.56,2.31-.1,3.06,1.1.73,1.16.72,2.28-.25,3.25-1.52,1.52-3.19,2.87-5.11,3.83-1.34.67-2.64.65-3.31-1.06,1.47-3.49,4.54-4.46,8.22-5-1.68-1.4-3.07-.68-4.34-.02-1.26.65-2.4,1.56-3.59,2.35Z" style="fill:#333; stroke-width:0px;"/><path d="M9.67,55.74c4.08-.5,4.12-.49,4.89-4.45,1.13-5.87,2.8-11.61,4.18-17.42.86-3.6.64-3.99-2.44-5.57,3.16-1.03,4.59.32,3.8,3.84-1.24,5.52-2.68,10.99-3.99,16.5-.53,2.25-.9,4.53-1.4,6.79-.29,1.29-1.09,2.21-2.46,2.22-1.24,0-2.39-.37-2.57-1.91Z" style="fill:#1a1a1a; stroke-width:0px;"/><path d="M49.45,32.68c.05-.68.66-1.25.41-2,1.09-1.59,3.02-.57,4.35-1.4,2.62,4.14,2.02,6.18-2.39,8.19-1.72-1.14-.83-3.57-2.37-4.79Z" style="fill:#393939; stroke-width:0px;"/><path d="M37,14.39c-1.88-2.72-4.49-2.75-7.31-1.99-5.7.7-11.09,2.36-16.19,5-1.94,1.08-3.87,2.16-5.81,3.24.58-.99,1.43-1.72,2.38-2.31,6.93-4.31,14.48-6.66,22.62-7.1,2.05-.11,4.04.18,4.79,2.61-.16.18-.32.36-.48.54Z" style="fill:#1b1b1b; stroke-width:0px;"/><path d="M50.73,14.83c-.88,1.85-2.24,3.29-3.92,4.39-.79.52-1.87.86-2.61-.06-.63-.8-.14-1.69.39-2.41.75-1.04,1.66-1.92,2.71-2.68.55-.4,1.37-.62,1.18-1.59,1.56,0,1.78,1.29,2.25,2.35Z" style="fill:#3b3b3b; stroke-width:0px;"/><path d="M51.82,37.48c4.41-2.01,5.01-4.05,2.39-8.19-.71-.6-1.36-1.29-2.33-1.5-3.57-1.01-6.16.98-8.78,2.87-.13.02-.26.07-.38.13-.31-.04-.61-.07-.92-.11,2.16-1.89,4.56-3.37,7.38-4.05,3.44-.83,5.58.58,6.6,3.99.49,1.63.75,3.24.58,4.9-.26,2.45-2.41,3.35-4.54,1.96Z" style="fill:#272727; stroke-width:0px;"/><path d="M70.15,59.08c-.21-.85.47-1.77-.19-2.59-1.8-2.32-3.43-.21-5.13.2-3.56,1.36-6.59,3.73-10.05,5.27-.18-.16-.36-.33-.54-.49,3.73-2.27,7.51-4.45,11.47-6.29.92-.43,1.95-.7,2.95-.85,1.28-.19,2.1.6,2.56,1.71.53,1.3.1,2.31-1.07,3.04Z" style="fill:#1c1c1c; stroke-width:0px;"/><path d="M36.91,35.04c-.54.16-.82-.1-.98-.58.3-1.68,1.18-3.12,1.98-4.58.6-1.1,1.48-2.16.55-3.52-1-1.46-2.26-.68-3.46-.44.89-1.81,2.39-2.04,3.97-1.22,1.82.95,1.62,2.6.8,4.11-1.1,2.01-2.36,3.94-2.86,6.23Z" style="fill:#292929; stroke-width:0px;"/><path d="M37,14.39c.16-.18.32-.36.48-.54.95,2.05-.11,3.7-1.15,5.28-2.35,3.57-4.79,7.09-7.19,10.63-.3-.01-.6-.03-.9-.04,1.81-3.77,4.52-6.94,6.9-10.33,1.05-1.5,2.24-2.96,1.87-4.99Z" style="fill:#1c1c1c; stroke-width:0px;"/><path d="M58.79,49.19c1.19-.79,2.32-1.7,3.59-2.35,1.27-.66,2.66-1.38,4.34.02-3.68.54-6.75,1.51-8.22,5-.45-.95-.83-1.9.3-2.67Z" style="fill:#afafaf; stroke-width:0px;"/><path d="M35.95,44.53c.33-.28.67-.57,1-.85,2.26.74,2.29,2.43.03,5.11-.86-.63-.36-1.58-.57-2.36-.08-.65.18-1.39-.47-1.9Z" style="fill:#939393; stroke-width:0px;"/><path d="M41.8,30.69c.31.04.61.07.92.11-.03.89.07,1.83-.93,2.32-1.82.1-2.37,2.67-4.44,2.27,1.49-1.57,2.97-3.13,4.46-4.7Z" style="fill:#939393; stroke-width:0px;"/><path d="M28.24,29.71c.3.01.6.03.9.04,1.33.99,1.71-.61,2.55-.95-.07,1.64-1.83,2.08-2.4,3.37-.72-.12-1.53,1.2-2.02.22-.47-.93.36-1.88.97-2.69Z" style="fill:#4a4a4a; stroke-width:0px;"/><path d="M50.73,14.83c-.47-1.05-.7-2.34-2.25-2.35h-1.73c1.13-1.59,1.92-1.96,2.99-1.31,1.43.88,1.76,2.14,1,3.66Z" style="fill:#151515; stroke-width:0px;"/><path d="M54.25,61.46c.18.16.36.33.54.49-.81.48-1.63.97-2.44,1.45-.38-1.86-.2-3.68.38-5.47.18.52.36,1.05.54,1.57.65.49-1.15,2.21.98,1.95Z" style="fill:#2f2f2f; stroke-width:0px;"/><path d="M7.69,20.64c1.94-1.08,3.87-2.16,5.81-3.24.18.16.36.32.54.48-2.08,1.25-4.16,2.5-6.23,3.76-.35-.29-.45-.62-.11-.99Z" style="fill:silver; stroke-width:0px;"/><path d="M45.53,35.04c-1.09,2.25-2.19,4.49-3.28,6.74-2.65-.88-1.74-2.86-1.2-4.48.69-2.07,2.24-2.99,4.48-2.26Z" style="fill:#939393; stroke-width:0px;"/><path d="M43.1,30.66c2.62-1.89,5.21-3.88,8.78-2.87-1.31.81-2.63,1.63-3.94,2.44-1.64-.2-3.12,1.44-4.84.43Z" style="fill:#939393; stroke-width:0px;"/><path d="M47.94,30.23c1.31-.81,2.63-1.63,3.94-2.44.96.21,1.62.9,2.33,1.5-1.33.83-3.26-.19-4.35,1.4-1.5.52-2.12,2.03-3.27,2.93-.66-1.58.85-2.28,1.36-3.39Z" style="fill:#e0e0e0; stroke-width:0px;"/><path d="M52.34,63.41c.81-.48,1.63-.97,2.44-1.45,3.46-1.54,6.49-3.91,10.05-5.27.34.18.67.35,1.01.53-4.63,1.63-8.58,4.56-12.95,6.7-.19-.17-.37-.33-.56-.5Z" style="fill:#9e9e9e; stroke-width:0px;"/><path d="M14.04,17.88c-.18-.16-.36-.32-.54-.48,5.1-2.64,10.5-4.3,16.19-5,3.43.15,3.58.29,2.91,2.55-1.26-1.22-2.79-.91-4.28-.75-4.94.51-9.64,1.98-14.28,3.68Z" style="fill:#f5f5f5; stroke-width:0px;"/><path d="M65.85,57.21c-.34-.18-.67-.35-1.01-.53,1.7-.41,3.33-2.51,5.13-.2-1.32.55-2.71.69-4.12.72Z" style="fill:#dfdfdf; stroke-width:0px;"/></svg>